<svg width="403" height="338" viewBox="0 0 403 338" fill="none" xmlns="http://www.w3.org/2000/svg">
<path d="M89 168.25H27M89 168.25V85.625M89 168.25V251.875M318 169.25V3H89V85.625M318 169.25V335.5H89V251.875M318 169.25H376M89 85.625H27M89 251.875H27" stroke="black" stroke-width="5"/>
<path d="M376.052 168.323C376.187 185.423 400.187 185.417 400.052 168.323M376 169.823C376.135 152.722 400.134 152.729 400 169.823" stroke="black" stroke-width="5"/>
<path d="M3.0524 250.323C3.18708 267.423 27.1867 267.417 27.0524 250.323M3 251.823C3.13468 234.722 27.1343 234.729 27 251.823" stroke="black" stroke-width="5"/>
<path d="M3.0524 250.323C3.18708 267.423 27.1867 267.417 27.0524 250.323M3 251.823C3.13468 234.722 27.1343 234.729 27 251.823" stroke="black" stroke-width="5"/>
<path d="M3.0524 168C3.18708 185.1 27.1867 185.094 27.0524 168M3 169.5C3.13468 152.4 27.1343 152.406 27 169.5" stroke="black" stroke-width="5"/>
<path d="M3.0524 83.3229C3.18708 100.423 27.1867 100.417 27.0524 83.3229M3 84.8228C3.13468 67.7224 27.1343 67.7291 27 84.8228" stroke="black" stroke-width="5"/>
<path d="M164.934 180.641H143.488L138.672 194H131.711L151.258 142.812H157.164L176.746 194H169.82L164.934 180.641ZM145.527 175.086H162.93L154.211 151.145L145.527 175.086ZM222.977 194H216.191L190.422 154.555V194H183.637V142.812H190.422L216.262 182.434V142.812H222.977V194ZM234.965 194V142.812H249.414C253.867 142.812 257.805 143.797 261.227 145.766C264.648 147.734 267.285 150.535 269.137 154.168C271.012 157.801 271.961 161.973 271.984 166.684V169.953C271.984 174.781 271.047 179.012 269.172 182.645C267.32 186.277 264.66 189.066 261.191 191.012C257.746 192.957 253.727 193.953 249.133 194H234.965ZM241.715 148.367V188.48H248.816C254.02 188.48 258.062 186.863 260.945 183.629C263.852 180.395 265.305 175.789 265.305 169.812V166.824C265.305 161.012 263.934 156.5 261.191 153.289C258.473 150.055 254.605 148.414 249.59 148.367H241.715Z" fill="black"/>
</svg>
