<svg width="403" height="338" viewBox="0 0 403 338" fill="none" xmlns="http://www.w3.org/2000/svg">
<path d="M89 85.5V3H318V169.25M89 85.5H27M89 85.5V251M89 251V335.5H318V169.25M89 251H27M318 169.25H376" stroke="black" stroke-width="5"/>
<path d="M376.052 168.323C376.187 185.423 400.187 185.417 400.052 168.323M376 169.823C376.135 152.722 400.134 152.729 400 169.823" stroke="black" stroke-width="5"/>
<path d="M3.0524 251.323C3.18708 268.423 27.1867 268.417 27.0524 251.323M3 252.823C3.13468 235.722 27.1343 235.729 27 252.823" stroke="black" stroke-width="5"/>
<path d="M3.0524 85.3229C3.18708 102.423 27.1867 102.417 27.0524 85.3229M3 86.8228C3.13468 69.7224 27.1343 69.7291 27 86.8228" stroke="black" stroke-width="5"/>
<path d="M165.434 180.641H143.988L139.172 194H132.211L151.758 142.812H157.664L177.246 194H170.32L165.434 180.641ZM146.027 175.086H163.43L154.711 151.145L146.027 175.086ZM223.477 194H216.691L190.922 154.555V194H184.137V142.812H190.922L216.762 182.434V142.812H223.477V194ZM235.465 194V142.812H249.914C254.367 142.812 258.305 143.797 261.727 145.766C265.148 147.734 267.785 150.535 269.637 154.168C271.512 157.801 272.461 161.973 272.484 166.684V169.953C272.484 174.781 271.547 179.012 269.672 182.645C267.82 186.277 265.16 189.066 261.691 191.012C258.246 192.957 254.227 193.953 249.633 194H235.465ZM242.215 148.367V188.48H249.316C254.52 188.48 258.562 186.863 261.445 183.629C264.352 180.395 265.805 175.789 265.805 169.812V166.824C265.805 161.012 264.434 156.5 261.691 153.289C258.973 150.055 255.105 148.414 250.09 148.367H242.215Z" fill="black"/>
</svg>
