<svg width="95" height="77" viewBox="0 0 95 77" fill="none" xmlns="http://www.w3.org/2000/svg">
<path d="M17.5 19.75V38.5V57.25M17.5 19.75V6C17.5 3.23858 19.7386 1 22.5 1H72.5C75.2614 1 77.5 3.23858 77.5 6V38.5M17.5 19.75H7.5M17.5 57.25V71C17.5 73.7614 19.7386 76 22.5 76H72.5C75.2614 76 77.5 73.7614 77.5 71V38.5M17.5 57.25H7.5M77.5 38.5H87.5" stroke="black" stroke-width="2"/>
<path d="M1 19.4574C1.04338 24.2069 8.04248 24.1548 7.99981 19.4574M1 19.5426C1.04338 14.7931 8.04248 14.8452 7.9998 19.5426" stroke="black" stroke-width="2"/>
<path d="M1 57.4574C1.04338 62.2069 8.04248 62.1548 7.99981 57.4574M1 57.5426C1.04338 52.7931 8.04248 52.8452 7.9998 57.5426" stroke="black" stroke-width="2"/>
<path d="M87 38.4574C87.0434 43.2069 94.0425 43.1548 93.9998 38.4574M87 38.5426C87.0434 33.7931 94.0425 33.8452 93.9998 38.5426" stroke="black" stroke-width="2"/>
<path d="M36.7871 41.2891H30.8301L29.4922 45H27.5586L32.9883 30.7812H34.6289L40.0684 45H38.1445L36.7871 41.2891ZM31.3965 39.7461H36.2305L33.8086 33.0957L31.3965 39.7461ZM52.9102 45H51.0254L43.8672 34.043V45H41.9824V30.7812H43.8672L51.0449 41.7871V30.7812H52.9102V45ZM56.2402 45V30.7812H60.2539C61.4909 30.7812 62.5846 31.0547 63.5352 31.6016C64.4857 32.1484 65.2181 32.9264 65.7324 33.9355C66.2533 34.9447 66.5169 36.1035 66.5234 37.4121V38.3203C66.5234 39.6615 66.263 40.8366 65.7422 41.8457C65.2279 42.8548 64.4889 43.6296 63.5254 44.1699C62.5684 44.7103 61.4518 44.987 60.1758 45H56.2402ZM58.1152 32.3242V43.4668H60.0879C61.5332 43.4668 62.6562 43.0176 63.457 42.1191C64.2643 41.2207 64.668 39.9414 64.668 38.2812V37.4512C64.668 35.8366 64.2871 34.5833 63.5254 33.6914C62.7702 32.793 61.696 32.3372 60.3027 32.3242H58.1152Z" fill="black"/>
<path d="M17.5 19.75V38.5V57.25M17.5 19.75V6C17.5 3.23858 19.7386 1 22.5 1H72.5C75.2614 1 77.5 3.23858 77.5 6V38.5M17.5 19.75H7.5M17.5 57.25V71C17.5 73.7614 19.7386 76 22.5 76H72.5C75.2614 76 77.5 73.7614 77.5 71V38.5M17.5 57.25H7.5M77.5 38.5H87.5" stroke="black" stroke-width="2"/>
<path d="M1 38.4574C1.04338 43.2069 8.04248 43.1548 7.99981 38.4574M1 38.5426C1.04338 33.7931 8.04248 33.8452 7.9998 38.5426" stroke="black" stroke-width="2"/>
<path d="M17.5 19.75V38.5V57.25M17.5 19.75V6C17.5 3.23858 19.7386 1 22.5 1H72.5C75.2614 1 77.5 3.23858 77.5 6V38.5M17.5 19.75H7.5M17.5 57.25V71C17.5 73.7614 19.7386 76 22.5 76H72.5C75.2614 76 77.5 73.7614 77.5 71V38.5M17.5 57.25H7.5M77.5 38.5H87.5" stroke="black" stroke-width="2"/>
<path d="M36.7871 41.2891H30.8301L29.4922 45H27.5586L32.9883 30.7812H34.6289L40.0684 45H38.1445L36.7871 41.2891ZM31.3965 39.7461H36.2305L33.8086 33.0957L31.3965 39.7461ZM52.9102 45H51.0254L43.8672 34.043V45H41.9824V30.7812H43.8672L51.0449 41.7871V30.7812H52.9102V45ZM56.2402 45V30.7812H60.2539C61.4909 30.7812 62.5846 31.0547 63.5352 31.6016C64.4857 32.1484 65.2181 32.9264 65.7324 33.9355C66.2533 34.9447 66.5169 36.1035 66.5234 37.4121V38.3203C66.5234 39.6615 66.263 40.8366 65.7422 41.8457C65.2279 42.8548 64.4889 43.6296 63.5254 44.1699C62.5684 44.7103 61.4518 44.987 60.1758 45H56.2402ZM58.1152 32.3242V43.4668H60.0879C61.5332 43.4668 62.6562 43.0176 63.457 42.1191C64.2643 41.2207 64.668 39.9414 64.668 38.2812V37.4512C64.668 35.8366 64.2871 34.5833 63.5254 33.6914C62.7702 32.793 61.696 32.3372 60.3027 32.3242H58.1152Z" fill="black"/>
<path d="M17.5 38.5V19.75M17.5 38.5V57.25M17.5 38.5H7.5M17.5 19.75V6C17.5 3.23858 19.7386 1 22.5 1H72.5C75.2614 1 77.5 3.23858 77.5 6V38.5M17.5 19.75H7.5M17.5 57.25V71C17.5 73.7614 19.7386 76 22.5 76H72.5C75.2614 76 77.5 73.7614 77.5 71V38.5M17.5 57.25H7.5M77.5 38.5H87.5" stroke="black" stroke-width="2"/>
<path d="M36.7871 41.2891H30.8301L29.4922 45H27.5586L32.9883 30.7812H34.6289L40.0684 45H38.1445L36.7871 41.2891ZM31.3965 39.7461H36.2305L33.8086 33.0957L31.3965 39.7461ZM52.9102 45H51.0254L43.8672 34.043V45H41.9824V30.7812H43.8672L51.0449 41.7871V30.7812H52.9102V45ZM56.2402 45V30.7812H60.2539C61.4909 30.7812 62.5846 31.0547 63.5352 31.6016C64.4857 32.1484 65.2181 32.9264 65.7324 33.9355C66.2533 34.9447 66.5169 36.1035 66.5234 37.4121V38.3203C66.5234 39.6615 66.263 40.8366 65.7422 41.8457C65.2279 42.8548 64.4889 43.6296 63.5254 44.1699C62.5684 44.7103 61.4518 44.987 60.1758 45H56.2402ZM58.1152 32.3242V43.4668H60.0879C61.5332 43.4668 62.6562 43.0176 63.457 42.1191C64.2643 41.2207 64.668 39.9414 64.668 38.2812V37.4512C64.668 35.8366 64.2871 34.5833 63.5254 33.6914C62.7702 32.793 61.696 32.3372 60.3027 32.3242H58.1152Z" fill="black"/>
</svg>
