<svg width="51" height="42" viewBox="0 0 51 42" fill="none" xmlns="http://www.w3.org/2000/svg">
<path d="M8.42856 20.6691C8.38252 25.7094 0.954905 25.6541 1.00019 20.6691M8.42856 20.7595C8.38252 15.7192 0.954908 15.7745 1.0002 20.7595" stroke="#62E0D9" stroke-width="2"/>
<path d="M15 21V6C15 3.23858 17.2386 1 20 1H44.2857C47.0471 1 49.2857 3.23858 49.2857 6V11V21V31V36C49.2857 38.7614 47.0471 41 44.2857 41H20C17.2386 41 15 38.7614 15 36V21ZM15 21H8.99999" stroke="#62E0D9" stroke-width="2"/>
<path d="M39.8571 10.1429H25C23.8954 10.1429 23 11.0383 23 12.1429V29.8571C23 30.9617 23.8954 31.8571 25 31.8571H39.8571C40.9617 31.8571 41.8571 30.9617 41.8571 29.8571V12.1429C41.8571 11.0383 40.9617 10.1429 39.8571 10.1429Z" stroke="#62E0D9" stroke-width="2"/>
</svg>

