<svg width="51" height="42" viewBox="0 0 51 42" fill="none" xmlns="http://www.w3.org/2000/svg">
<path d="M49.5714 20.6691C49.5254 25.7094 42.0978 25.6541 42.1431 20.6691M49.5714 20.7595C49.5254 15.7192 42.0978 15.7745 42.1431 20.7595" stroke="#62E0D9" stroke-width="2"/>
<path d="M35.2857 21V11V6C35.2857 3.23858 33.0471 1 30.2857 1H6C3.23857 1 0.999998 3.23858 0.999998 6V21V36C0.999998 38.7614 3.23857 41 6 41H30.2857C33.0471 41 35.2857 38.7614 35.2857 36V31V21ZM35.2857 21H41" stroke="#62E0D9" stroke-width="2"/>
<path d="M35.2857 21V11V6C35.2857 3.23858 33.0471 1 30.2857 1H6C3.23857 1 0.999998 3.23858 0.999998 6V21V36C0.999998 38.7614 3.23857 41 6 41H30.2857C33.0471 41 35.2857 38.7614 35.2857 36V31V21ZM35.2857 21H41" stroke="#62E0D9" stroke-width="2"/>
<path d="M25.8571 10.1429H11C9.89543 10.1429 9 11.0383 9 12.1429V29.8571C9 30.9617 9.89543 31.8571 11 31.8571H25.8571C26.9617 31.8571 27.8571 30.9617 27.8571 29.8571V12.1429C27.8571 11.0383 26.9617 10.1429 25.8571 10.1429Z" stroke="#62E0D9" stroke-width="2"/>
</svg>
