<svg width="96" height="77" viewBox="0 0 96 77" fill="none" xmlns="http://www.w3.org/2000/svg">
<path d="M17.5 19.75V38.5V57.25M17.5 19.75V6C17.5 3.23858 19.7386 1 22.5 1H72.5C75.2614 1 77.5 3.23858 77.5 6V38.5V71C77.5 73.7614 75.2614 76 72.5 76H22.5C19.7386 76 17.5 73.7614 17.5 71V57.25M17.5 19.75H7.5M17.5 57.25H7.5" stroke="black" stroke-width="2"/>
<path d="M1 19.4574C1.04338 24.2069 8.04248 24.1548 7.99981 19.4574M1 19.5426C1.04338 14.7931 8.04248 14.8452 7.9998 19.5426" stroke="black" stroke-width="2"/>
<path d="M1 57.4574C1.04338 62.2069 8.04248 62.1548 7.99981 57.4574M1 57.5426C1.04338 52.7931 8.04248 52.8452 7.9998 57.5426" stroke="black" stroke-width="2"/>
<path d="M43.3203 30.7812H45.2051V40.8496C45.2051 42.2103 44.7949 43.2747 43.9746 44.043C43.1608 44.8112 42.0736 45.1953 40.7129 45.1953C39.3001 45.1953 38.1999 44.834 37.4121 44.1113C36.6243 43.3887 36.2305 42.3763 36.2305 41.0742H38.1055C38.1055 41.888 38.3268 42.5228 38.7695 42.9785C39.2188 43.4342 39.8665 43.6621 40.7129 43.6621C41.4876 43.6621 42.1126 43.418 42.5879 42.9297C43.0697 42.4414 43.3138 41.7578 43.3203 40.8789V30.7812ZM52.0117 38.3887L50.2734 40.1953V45H48.3984V30.7812H50.2734V37.8125L56.5918 30.7812H58.8574L53.2617 37.0605L59.2969 45H57.0508L52.0117 38.3887Z" fill="black"/>
<path d="M17 33L25 38.7391L17 45" stroke="black" stroke-width="2"/>
<path d="M17.5 19.75V38.5V57.25M17.5 19.75V6C17.5 3.23858 19.7386 1 22.5 1H72.5C75.2614 1 77.5 3.23858 77.5 6V38.5V71C77.5 73.7614 75.2614 76 72.5 76H22.5C19.7386 76 17.5 73.7614 17.5 71V57.25M17.5 19.75H7.5M17.5 57.25H7.5" stroke="black" stroke-width="2"/>
<path d="M1 38.4574C1.04338 43.2069 8.04248 43.1548 7.99981 38.4574M1 38.5426C1.04338 33.7931 8.04248 33.8452 7.9998 38.5426" stroke="black" stroke-width="2"/>
<path d="M17.5 19.75V38.5V57.25M17.5 19.75V6C17.5 3.23858 19.7386 1 22.5 1H72.5C75.2614 1 77.5 3.23858 77.5 6V38.5V71C77.5 73.7614 75.2614 76 72.5 76H22.5C19.7386 76 17.5 73.7614 17.5 71V57.25M17.5 19.75H7.5M17.5 57.25H7.5" stroke="black" stroke-width="2"/>
<path d="M1 57.4574C1.04338 62.2069 8.04248 62.1548 7.99981 57.4574M1 57.5426C1.04338 52.7931 8.04248 52.8452 7.9998 57.5426" stroke="black" stroke-width="2"/>
<path d="M87 57.4574C87.0434 62.2069 94.0425 62.1548 93.9998 57.4574M87 57.5426C87.0434 52.7931 94.0425 52.8452 93.9998 57.5426" stroke="black" stroke-width="2"/>
<path d="M88 19.4574C88.0434 24.2069 95.0425 24.1548 94.9998 19.4574M88 19.5426C88.0434 14.7931 95.0425 14.8452 94.9998 19.5426" stroke="black" stroke-width="2"/>
<path d="M17.5 38.5V19.75M17.5 38.5V57.25M17.5 38.5H7.5M17.5 19.75V6C17.5 3.23858 19.7386 1 22.5 1H72.5C75.2614 1 77.5 3.23858 77.5 6V19.75M17.5 19.75H7.5M17.5 57.25V71C17.5 73.7614 19.7386 76 22.5 76H72.5C75.2614 76 77.5 73.7614 77.5 71V57.25M17.5 57.25H7.5M77.5 19.75V38.5V57.25M77.5 19.75L87.5 19.75M77.5 57.25H87.5" stroke="black" stroke-width="2"/>
</svg>
