<svg width="95" height="93" viewBox="0 0 95 93" fill="none" xmlns="http://www.w3.org/2000/svg">
<path d="M17.5 19.75V38.5V57.25M17.5 19.75V6C17.5 3.23858 19.7386 1 22.5 1H72.5C75.2614 1 77.5 3.23858 77.5 6V38.5M17.5 19.75H7.5M17.5 57.25V71C17.5 73.7614 19.7386 76 22.5 76H72.5C75.2614 76 77.5 73.7614 77.5 71V38.5M17.5 57.25H7.5M77.5 38.5H87.5M47.5 76V86" stroke="#62E0D9" stroke-width="2"/>
<path d="M1 19.4574C1.04338 24.2069 8.04248 24.1548 7.99981 19.4574M1 19.5426C1.04338 14.7931 8.04248 14.8452 7.9998 19.5426" stroke="#62E0D9" stroke-width="2"/>
<path d="M1 57.4574C1.04338 62.2069 8.04248 62.1548 7.99981 57.4574M1 57.5426C1.04338 52.7931 8.04248 52.8452 7.9998 57.5426" stroke="#62E0D9" stroke-width="2"/>
<path d="M87 38.4574C87.0434 43.2069 94.0425 43.1548 93.9998 38.4574M87 38.5426C87.0434 33.7931 94.0425 33.8452 93.9998 38.5426" stroke="#62E0D9" stroke-width="2"/>
<path d="M44 88.4574C44.0434 93.2069 51.0425 93.1548 50.9998 88.4574M44 88.5426C44.0434 83.7931 51.0425 83.8452 50.9998 88.5426" stroke="#62E0D9" stroke-width="2"/>
<path d="M44.3457 34H35.0293V32.7012L39.9512 27.2324C40.6803 26.4056 41.1816 25.735 41.4551 25.2207C41.735 24.6999 41.875 24.1628 41.875 23.6094C41.875 22.8672 41.6504 22.2585 41.2012 21.7832C40.752 21.3079 40.153 21.0703 39.4043 21.0703C38.5059 21.0703 37.806 21.3275 37.3047 21.8418C36.8099 22.3496 36.5625 23.0592 36.5625 23.9707H34.7559C34.7559 22.6621 35.1758 21.6042 36.0156 20.7969C36.862 19.9896 37.9915 19.5859 39.4043 19.5859C40.7259 19.5859 41.7708 19.9342 42.5391 20.6309C43.3073 21.321 43.6914 22.2422 43.6914 23.3945C43.6914 24.7943 42.7995 26.4609 41.0156 28.3945L37.207 32.5254H44.3457V34ZM46.3867 33.0527C46.3867 32.7402 46.4779 32.4798 46.6602 32.2715C46.849 32.0632 47.1289 31.959 47.5 31.959C47.8711 31.959 48.151 32.0632 48.3398 32.2715C48.5352 32.4798 48.6328 32.7402 48.6328 33.0527C48.6328 33.3522 48.5352 33.6029 48.3398 33.8047C48.151 34.0065 47.8711 34.1074 47.5 34.1074C47.1289 34.1074 46.849 34.0065 46.6602 33.8047C46.4779 33.6029 46.3867 33.3522 46.3867 33.0527ZM46.3965 24.4297C46.3965 24.1172 46.4876 23.8568 46.6699 23.6484C46.8587 23.4401 47.1387 23.3359 47.5098 23.3359C47.8809 23.3359 48.1608 23.4401 48.3496 23.6484C48.5449 23.8568 48.6426 24.1172 48.6426 24.4297C48.6426 24.7292 48.5449 24.9798 48.3496 25.1816C48.1608 25.3835 47.8809 25.4844 47.5098 25.4844C47.1387 25.4844 46.8587 25.3835 46.6699 25.1816C46.4876 24.9798 46.3965 24.7292 46.3965 24.4297ZM57.041 34H55.2246V21.959L51.582 23.2969V21.6562L56.7578 19.7129H57.041V34ZM30.0879 42.7812L34.7363 54.3828L39.3848 42.7812H41.8164V57H39.9414V51.4629L40.1172 45.4863L35.4492 57H34.0137L29.3555 45.5156L29.541 51.4629V57H27.666V42.7812H30.0879ZM55.1367 42.7812V52.4492C55.1302 53.7904 54.707 54.8874 53.8672 55.7402C53.0339 56.5931 51.901 57.0716 50.4688 57.1758L49.9707 57.1953C48.4147 57.1953 47.1745 56.7754 46.25 55.9355C45.3255 55.0957 44.8568 53.9401 44.8438 52.4688V42.7812H46.6992V52.4102C46.6992 53.4388 46.9824 54.2396 47.5488 54.8125C48.1152 55.3789 48.9225 55.6621 49.9707 55.6621C51.0319 55.6621 51.8424 55.3789 52.4023 54.8125C52.9688 54.2461 53.252 53.4486 53.252 52.4199V42.7812H55.1367ZM62.7344 48.2305L66.1426 42.7812H68.3496L63.8574 49.832L68.457 57H66.2305L62.7344 51.4531L59.2188 57H57.002L61.6113 49.832L57.1094 42.7812H59.3066L62.7344 48.2305Z" fill="#62E0D9"/>
</svg>
