<svg width="95" height="116" viewBox="0 0 95 116" fill="none" xmlns="http://www.w3.org/2000/svg">
<path d="M17.875 25.2647C17.875 19.2719 17.875 11.1541 17.875 5.99601C17.875 3.23459 20.1136 1 22.875 1H72.125C74.8864 1 77.125 3.23858 77.125 6V49.5294M17.875 25.2647C17.875 28.7866 17.875 33.0424 17.875 37C17.875 43.6908 17.875 49.5294 17.875 49.5294C17.875 49.5294 17.875 49.5294 17.875 49.5294V61.6618M17.875 25.2647V18.1324C17.875 13.1324 17.875 13.1324 17.875 13.1324H8M17.875 25.2647V34.3971C17.875 37.1585 17.875 37.3971 17.875 37.3971H8M77.125 49.5294V93.0588C77.125 95.8203 74.8864 98.0588 72.125 98.0588H62.3125M77.125 49.5294H87M17.875 61.6618V73.7941V85.9265M17.875 61.6618H8M17.875 85.9265V93.0588C17.875 95.8203 20.1136 98.0588 22.875 98.0588H32.6875M17.875 85.9265H8M32.6875 98.0588H47.5H62.3125M32.6875 98.0588V108.06M62.3125 98.0588V108.06" stroke="#62E0D9" stroke-width="2"/>
<path d="M1 61.4574C1.04338 66.2069 8.04248 66.1548 7.99981 61.4574M1 61.5426C1.04338 56.7931 8.04248 56.8452 7.9998 61.5426" stroke="#62E0D9" stroke-width="2"/>
<path d="M1 37.4574C1.04338 42.2069 8.04248 42.1548 7.99981 37.4574M1 37.5426C1.04338 32.7931 8.04248 32.8452 7.9998 37.5426" stroke="#62E0D9" stroke-width="2"/>
<path d="M1 13.4574C1.04338 18.2069 8.04248 18.1548 7.99981 13.4574M1 13.5426C1.04338 8.79311 8.04248 8.84522 7.9998 13.5426" stroke="#62E0D9" stroke-width="2"/>
<path d="M1 85.4574C1.04338 90.2069 8.04248 90.1548 7.99981 85.4574M1 85.5426C1.04338 80.7931 8.04248 80.8452 7.9998 85.5426" stroke="#62E0D9" stroke-width="2"/>
<path d="M87 49.4574C87.0434 54.2069 94.0425 54.1548 93.9998 49.4574M87 49.5426C87.0434 44.7931 94.0425 44.8452 93.9998 49.5426" stroke="#62E0D9" stroke-width="2"/>
<path d="M59 111.457C59.0434 116.207 66.0425 116.155 65.9998 111.457M59 111.543C59.0434 106.793 66.0425 106.845 65.9998 111.543" stroke="#62E0D9" stroke-width="2"/>
<path d="M29 111.457C29.0434 116.207 36.0425 116.155 35.9998 111.457M29 111.543C29.0434 106.793 36.0425 106.845 35.9998 111.543" stroke="#62E0D9" stroke-width="2"/>
<path d="M43.6562 40.2246H45.6289V41.6992H43.6562V45H41.8398V41.6992H35.3652V40.6348L41.7324 30.7812H43.6562V40.2246ZM37.416 40.2246H41.8398V33.252L41.625 33.6426L37.416 40.2246ZM47.3867 44.0527C47.3867 43.7402 47.4779 43.4798 47.6602 43.2715C47.849 43.0632 48.1289 42.959 48.5 42.959C48.8711 42.959 49.151 43.0632 49.3398 43.2715C49.5352 43.4798 49.6328 43.7402 49.6328 44.0527C49.6328 44.3522 49.5352 44.6029 49.3398 44.8047C49.151 45.0065 48.8711 45.1074 48.5 45.1074C48.1289 45.1074 47.849 45.0065 47.6602 44.8047C47.4779 44.6029 47.3867 44.3522 47.3867 44.0527ZM47.3965 35.4297C47.3965 35.1172 47.4876 34.8568 47.6699 34.6484C47.8587 34.4401 48.1387 34.3359 48.5098 34.3359C48.8809 34.3359 49.1608 34.4401 49.3496 34.6484C49.5449 34.8568 49.6426 35.1172 49.6426 35.4297C49.6426 35.7292 49.5449 35.9798 49.3496 36.1816C49.1608 36.3835 48.8809 36.4844 48.5098 36.4844C48.1387 36.4844 47.8587 36.3835 47.6699 36.1816C47.4876 35.9798 47.3965 35.7292 47.3965 35.4297ZM61.4199 45H52.1035V43.7012L57.0254 38.2324C57.7546 37.4056 58.2559 36.735 58.5293 36.2207C58.8092 35.6999 58.9492 35.1628 58.9492 34.6094C58.9492 33.8672 58.7246 33.2585 58.2754 32.7832C57.8262 32.3079 57.2272 32.0703 56.4785 32.0703C55.5801 32.0703 54.8802 32.3275 54.3789 32.8418C53.8841 33.3496 53.6367 34.0592 53.6367 34.9707H51.8301C51.8301 33.6621 52.25 32.6042 53.0898 31.7969C53.9362 30.9896 55.0658 30.5859 56.4785 30.5859C57.8001 30.5859 58.8451 30.9342 59.6133 31.6309C60.3815 32.321 60.7656 33.2422 60.7656 34.3945C60.7656 35.7943 59.8737 37.4609 58.0898 39.3945L54.2812 43.5254H61.4199V45ZM31.0879 53.7812L35.7363 65.3828L40.3848 53.7812H42.8164V68H40.9414V62.4629L41.1172 56.4863L36.4492 68H35.0137L30.3555 56.5156L30.541 62.4629V68H28.666V53.7812H31.0879ZM56.1367 53.7812V63.4492C56.1302 64.7904 55.707 65.8874 54.8672 66.7402C54.0339 67.5931 52.901 68.0716 51.4688 68.1758L50.9707 68.1953C49.4147 68.1953 48.1745 67.7754 47.25 66.9355C46.3255 66.0957 45.8568 64.9401 45.8438 63.4688V53.7812H47.6992V63.4102C47.6992 64.4388 47.9824 65.2396 48.5488 65.8125C49.1152 66.3789 49.9225 66.6621 50.9707 66.6621C52.0319 66.6621 52.8424 66.3789 53.4023 65.8125C53.9688 65.2461 54.252 64.4486 54.252 63.4199V53.7812H56.1367ZM63.7344 59.2305L67.1426 53.7812H69.3496L64.8574 60.832L69.457 68H67.2305L63.7344 62.4531L60.2188 68H58.002L62.6113 60.832L58.1094 53.7812H60.3066L63.7344 59.2305Z" fill="#62E0D9"/>
</svg>
