<svg width="95" height="77" viewBox="0 0 95 77" fill="none" xmlns="http://www.w3.org/2000/svg">
<path d="M17.5 19.75V38.5V57.25M17.5 19.75V6C17.5 3.23858 19.7386 1 22.5 1H72.5C75.2614 1 77.5 3.23858 77.5 6V38.5M17.5 19.75H7.5M17.5 57.25V71C17.5 73.7614 19.7386 76 22.5 76H72.5C75.2614 76 77.5 73.7614 77.5 71V38.5M17.5 57.25H7.5M77.5 38.5H87.5" stroke="black" stroke-width="2"/>
<path d="M1 19.4574C1.04338 24.2069 8.04248 24.1548 7.99981 19.4574M1 19.5426C1.04338 14.7931 8.04248 14.8452 7.9998 19.5426" stroke="black" stroke-width="2"/>
<path d="M1 57.4574C1.04338 62.2069 8.04248 62.1548 7.99981 57.4574M1 57.5426C1.04338 52.7931 8.04248 52.8452 7.9998 57.5426" stroke="black" stroke-width="2"/>
<path d="M87 38.4574C87.0434 43.2069 94.0425 43.1548 93.9998 38.4574M87 38.5426C87.0434 33.7931 94.0425 33.8452 93.9998 38.5426" stroke="black" stroke-width="2"/>
<path d="M32.6465 45H30.7617L23.6035 34.043V45H21.7188V30.7812H23.6035L30.7812 41.7871V30.7812H32.6465V45ZM44.0039 41.2891H38.0469L36.709 45H34.7754L40.2051 30.7812H41.8457L47.2852 45H45.3613L44.0039 41.2891ZM38.6133 39.7461H43.4473L41.0254 33.0957L38.6133 39.7461ZM60.127 45H58.2422L51.084 34.043V45H49.1992V30.7812H51.084L58.2617 41.7871V30.7812H60.127V45ZM63.457 45V30.7812H67.4707C68.7077 30.7812 69.8014 31.0547 70.752 31.6016C71.7025 32.1484 72.4349 32.9264 72.9492 33.9355C73.4701 34.9447 73.7337 36.1035 73.7402 37.4121V38.3203C73.7402 39.6615 73.4798 40.8366 72.959 41.8457C72.4447 42.8548 71.7057 43.6296 70.7422 44.1699C69.7852 44.7103 68.6686 44.987 67.3926 45H63.457ZM65.332 32.3242V43.4668H67.3047C68.75 43.4668 69.873 43.0176 70.6738 42.1191C71.4811 41.2207 71.8848 39.9414 71.8848 38.2812V37.4512C71.8848 35.8366 71.5039 34.5833 70.7422 33.6914C69.987 32.793 68.9128 32.3372 67.5195 32.3242H65.332Z" fill="black"/>
<path d="M17.5 19.75V38.5V57.25M17.5 19.75V6C17.5 3.23858 19.7386 1 22.5 1H72.5C75.2614 1 77.5 3.23858 77.5 6V38.5M17.5 19.75H7.5M17.5 57.25V71C17.5 73.7614 19.7386 76 22.5 76H72.5C75.2614 76 77.5 73.7614 77.5 71V38.5M17.5 57.25H7.5M77.5 38.5H87.5" stroke="black" stroke-width="2"/>
<path d="M1 38.4574C1.04338 43.2069 8.04248 43.1548 7.99981 38.4574M1 38.5426C1.04338 33.7931 8.04248 33.8452 7.9998 38.5426" stroke="black" stroke-width="2"/>
<path d="M17.5 19.75V38.5V57.25M17.5 19.75V6C17.5 3.23858 19.7386 1 22.5 1H72.5C75.2614 1 77.5 3.23858 77.5 6V38.5M17.5 19.75H7.5M17.5 57.25V71C17.5 73.7614 19.7386 76 22.5 76H72.5C75.2614 76 77.5 73.7614 77.5 71V38.5M17.5 57.25H7.5M77.5 38.5H87.5" stroke="black" stroke-width="2"/>
<path d="M1 57.4574C1.04338 62.2069 8.04248 62.1548 7.99981 57.4574M1 57.5426C1.04338 52.7931 8.04248 52.8452 7.9998 57.5426" stroke="black" stroke-width="2"/>
<path d="M17.5 38.5V19.75M17.5 38.5V57.25M17.5 38.5H7.5M17.5 19.75V6C17.5 3.23858 19.7386 1 22.5 1H72.5C75.2614 1 77.5 3.23858 77.5 6V38.5M17.5 19.75H7.5M17.5 57.25V71C17.5 73.7614 19.7386 76 22.5 76H72.5C75.2614 76 77.5 73.7614 77.5 71V38.5M17.5 57.25H7.5M77.5 38.5H87.5" stroke="black" stroke-width="2"/>
</svg>
