<svg width="95" height="77" viewBox="0 0 95 77" fill="none" xmlns="http://www.w3.org/2000/svg">
<path d="M17.5 19.75V38.5V57.25M17.5 19.75V6C17.5 3.23858 19.7386 1 22.5 1H72.5C75.2614 1 77.5 3.23858 77.5 6V38.5M17.5 19.75H7.5M17.5 57.25V71C17.5 73.7614 19.7386 76 22.5 76H72.5C75.2614 76 77.5 73.7614 77.5 71V38.5M17.5 57.25H7.5M77.5 38.5H87.5" stroke="black" stroke-width="2"/>
<path d="M1 19.4574C1.04338 24.2069 8.04248 24.1548 7.99981 19.4574M1 19.5426C1.04338 14.7931 8.04248 14.8452 7.9998 19.5426" stroke="black" stroke-width="2"/>
<path d="M1 57.4574C1.04338 62.2069 8.04248 62.1548 7.99981 57.4574M1 57.5426C1.04338 52.7931 8.04248 52.8452 7.9998 57.5426" stroke="black" stroke-width="2"/>
<path d="M87 38.4574C87.0434 43.2069 94.0425 43.1548 93.9998 38.4574M87 38.5426C87.0434 33.7931 94.0425 33.8452 93.9998 38.5426" stroke="black" stroke-width="2"/>
<path d="M39.9121 45H38.0273L30.8691 34.043V45H28.9844V30.7812H30.8691L38.0469 41.7871V30.7812H39.9121V45ZM54.1797 38.3496C54.1797 39.7428 53.9453 40.9603 53.4766 42.002C53.0078 43.0371 52.3438 43.8281 51.4844 44.375C50.625 44.9219 49.6224 45.1953 48.4766 45.1953C47.3568 45.1953 46.3639 44.9219 45.498 44.375C44.6322 43.8216 43.9583 43.0371 43.4766 42.0215C43.0013 40.9993 42.7572 39.8177 42.7441 38.4766V37.4512C42.7441 36.084 42.9818 34.8763 43.457 33.8281C43.9323 32.7799 44.6029 31.9792 45.4688 31.4258C46.3411 30.8659 47.3372 30.5859 48.457 30.5859C49.5964 30.5859 50.599 30.8626 51.4648 31.416C52.3372 31.9629 53.0078 32.7604 53.4766 33.8086C53.9453 34.8503 54.1797 36.0645 54.1797 37.4512V38.3496ZM52.3145 37.4316C52.3145 35.7454 51.9759 34.4531 51.2988 33.5547C50.6217 32.6497 49.6745 32.1973 48.457 32.1973C47.2721 32.1973 46.3379 32.6497 45.6543 33.5547C44.9772 34.4531 44.6289 35.7031 44.6094 37.3047V38.3496C44.6094 39.9837 44.9512 41.2695 45.6348 42.207C46.3249 43.138 47.2721 43.6035 48.4766 43.6035C49.6875 43.6035 50.625 43.1641 51.2891 42.2852C51.9531 41.3997 52.2949 40.1335 52.3145 38.4863V37.4316ZM62.207 39.248H58.8672V45H56.9824V30.7812H61.6895C63.291 30.7812 64.5215 31.1458 65.3809 31.875C66.2467 32.6042 66.6797 33.6654 66.6797 35.0586C66.6797 35.944 66.4388 36.7155 65.957 37.373C65.4818 38.0306 64.8177 38.5221 63.9648 38.8477L67.3047 44.8828V45H65.293L62.207 39.248ZM58.8672 37.7148H61.748C62.679 37.7148 63.418 37.474 63.9648 36.9922C64.5182 36.5104 64.7949 35.8659 64.7949 35.0586C64.7949 34.1797 64.5312 33.5059 64.0039 33.0371C63.4831 32.5684 62.7279 32.3307 61.7383 32.3242H58.8672V37.7148Z" fill="black"/>
<path d="M17.5 19.75V38.5V57.25M17.5 19.75V6C17.5 3.23858 19.7386 1 22.5 1H72.5C75.2614 1 77.5 3.23858 77.5 6V38.5M17.5 19.75H7.5M17.5 57.25V71C17.5 73.7614 19.7386 76 22.5 76H72.5C75.2614 76 77.5 73.7614 77.5 71V38.5M17.5 57.25H7.5M77.5 38.5H87.5" stroke="black" stroke-width="2"/>
<path d="M1 38.4574C1.04338 43.2069 8.04248 43.1548 7.99981 38.4574M1 38.5426C1.04338 33.7931 8.04248 33.8452 7.9998 38.5426" stroke="black" stroke-width="2"/>
<path d="M17.5 19.75V38.5V57.25M17.5 19.75V6C17.5 3.23858 19.7386 1 22.5 1H72.5C75.2614 1 77.5 3.23858 77.5 6V38.5M17.5 19.75H7.5M17.5 57.25V71C17.5 73.7614 19.7386 76 22.5 76H72.5C75.2614 76 77.5 73.7614 77.5 71V38.5M17.5 57.25H7.5M77.5 38.5H87.5" stroke="black" stroke-width="2"/>
<path d="M1 57.4574C1.04338 62.2069 8.04248 62.1548 7.99981 57.4574M1 57.5426C1.04338 52.7931 8.04248 52.8452 7.9998 57.5426" stroke="black" stroke-width="2"/>
<path d="M17.5 38.5V19.75M17.5 38.5V57.25M17.5 38.5H7.5M17.5 19.75V6C17.5 3.23858 19.7386 1 22.5 1H72.5C75.2614 1 77.5 3.23858 77.5 6V38.5M17.5 19.75H7.5M17.5 57.25V71C17.5 73.7614 19.7386 76 22.5 76H72.5C75.2614 76 77.5 73.7614 77.5 71V38.5M17.5 57.25H7.5M77.5 38.5H87.5" stroke="black" stroke-width="2"/>
</svg>
