<svg width="403" height="338" viewBox="0 0 403 338" fill="none" xmlns="http://www.w3.org/2000/svg">
<path d="M89 168.25V3H318V169.25M89 168.25H27M89 168.25V335.5H318V169.25M318 169.25H376" stroke="black" stroke-width="5"/>
<path d="M376.052 168.323C376.187 185.423 400.187 185.417 400.052 168.323M376 169.823C376.135 152.722 400.134 152.729 400 169.823" stroke="black" stroke-width="5"/>
<path d="M3.0524 168C3.18708 185.1 27.1867 185.094 27.0524 168M3 169.5C3.13468 152.4 27.1343 152.406 27 169.5" stroke="black" stroke-width="5"/>
<path d="M176.379 194H169.594L143.824 154.555V194H137.039V142.812H143.824L169.664 182.434V142.812H176.379V194ZM227.742 170.059C227.742 175.074 226.898 179.457 225.211 183.207C223.523 186.934 221.133 189.781 218.039 191.75C214.945 193.719 211.336 194.703 207.211 194.703C203.18 194.703 199.605 193.719 196.488 191.75C193.371 189.758 190.945 186.934 189.211 183.277C187.5 179.598 186.621 175.344 186.574 170.516V166.824C186.574 161.902 187.43 157.555 189.141 153.781C190.852 150.008 193.266 147.125 196.383 145.133C199.523 143.117 203.109 142.109 207.141 142.109C211.242 142.109 214.852 143.105 217.969 145.098C221.109 147.066 223.523 149.938 225.211 153.711C226.898 157.461 227.742 161.832 227.742 166.824V170.059ZM221.027 166.754C221.027 160.684 219.809 156.031 217.371 152.797C214.934 149.539 211.523 147.91 207.141 147.91C202.875 147.91 199.512 149.539 197.051 152.797C194.613 156.031 193.359 160.531 193.289 166.297V170.059C193.289 175.941 194.52 180.57 196.98 183.945C199.465 187.297 202.875 188.973 207.211 188.973C211.57 188.973 214.945 187.391 217.336 184.227C219.727 181.039 220.957 176.48 221.027 170.551V166.754ZM272.25 148.367H255.797V194H249.082V148.367H232.664V142.812H272.25V148.367Z" fill="black"/>
</svg>
