<svg width="95" height="77" viewBox="0 0 95 77" fill="none" xmlns="http://www.w3.org/2000/svg">
<path d="M17.5 19.75V38.5V57.25M17.5 19.75V6C17.5 3.23858 19.7386 1 22.5 1H72.5C75.2614 1 77.5 3.23858 77.5 6V38.5M17.5 19.75H7.5M17.5 57.25V71C17.5 73.7614 19.7386 76 22.5 76H72.5C75.2614 76 77.5 73.7614 77.5 71V38.5M17.5 57.25H7.5M77.5 38.5H87.5" stroke="black" stroke-width="2"/>
<path d="M1 19.4574C1.04338 24.2069 8.04248 24.1548 7.99981 19.4574M1 19.5426C1.04338 14.7931 8.04248 14.8452 7.9998 19.5426" stroke="black" stroke-width="2"/>
<path d="M1 57.4574C1.04338 62.2069 8.04248 62.1548 7.99981 57.4574M1 57.5426C1.04338 52.7931 8.04248 52.8452 7.9998 57.5426" stroke="black" stroke-width="2"/>
<path d="M87 38.4574C87.0434 43.2069 94.0425 43.1548 93.9998 38.4574M87 38.5426C87.0434 33.7931 94.0425 33.8452 93.9998 38.5426" stroke="black" stroke-width="2"/>
<path d="M47.0508 38.3496C47.0508 39.7428 46.8164 40.9603 46.3477 42.002C45.8789 43.0371 45.2148 43.8281 44.3555 44.375C43.4961 44.9219 42.4935 45.1953 41.3477 45.1953C40.2279 45.1953 39.235 44.9219 38.3691 44.375C37.5033 43.8216 36.8294 43.0371 36.3477 42.0215C35.8724 40.9993 35.6283 39.8177 35.6152 38.4766V37.4512C35.6152 36.084 35.8529 34.8763 36.3281 33.8281C36.8034 32.7799 37.474 31.9792 38.3398 31.4258C39.2122 30.8659 40.2083 30.5859 41.3281 30.5859C42.4674 30.5859 43.4701 30.8626 44.3359 31.416C45.2083 31.9629 45.8789 32.7604 46.3477 33.8086C46.8164 34.8503 47.0508 36.0645 47.0508 37.4512V38.3496ZM45.1855 37.4316C45.1855 35.7454 44.847 34.4531 44.1699 33.5547C43.4928 32.6497 42.5456 32.1973 41.3281 32.1973C40.1432 32.1973 39.209 32.6497 38.5254 33.5547C37.8483 34.4531 37.5 35.7031 37.4805 37.3047V38.3496C37.4805 39.9837 37.8223 41.2695 38.5059 42.207C39.196 43.138 40.1432 43.6035 41.3477 43.6035C42.5586 43.6035 43.4961 43.1641 44.1602 42.2852C44.8242 41.3997 45.166 40.1335 45.1855 38.4863V37.4316ZM55.0781 39.248H51.7383V45H49.8535V30.7812H54.5605C56.1621 30.7812 57.3926 31.1458 58.252 31.875C59.1178 32.6042 59.5508 33.6654 59.5508 35.0586C59.5508 35.944 59.3099 36.7155 58.8281 37.373C58.3529 38.0306 57.6888 38.5221 56.8359 38.8477L60.1758 44.8828V45H58.1641L55.0781 39.248ZM51.7383 37.7148H54.6191C55.5501 37.7148 56.2891 37.474 56.8359 36.9922C57.3893 36.5104 57.666 35.8659 57.666 35.0586C57.666 34.1797 57.4023 33.5059 56.875 33.0371C56.3542 32.5684 55.599 32.3307 54.6094 32.3242H51.7383V37.7148Z" fill="black"/>
<path d="M17.5 19.75V38.5V57.25M17.5 19.75V6C17.5 3.23858 19.7386 1 22.5 1H72.5C75.2614 1 77.5 3.23858 77.5 6V38.5M17.5 19.75H7.5M17.5 57.25V71C17.5 73.7614 19.7386 76 22.5 76H72.5C75.2614 76 77.5 73.7614 77.5 71V38.5M17.5 57.25H7.5M77.5 38.5H87.5" stroke="black" stroke-width="2"/>
<path d="M1 38.4574C1.04338 43.2069 8.04248 43.1548 7.99981 38.4574M1 38.5426C1.04338 33.7931 8.04248 33.8452 7.9998 38.5426" stroke="black" stroke-width="2"/>
<path d="M17.5 19.75V38.5V57.25M17.5 19.75V6C17.5 3.23858 19.7386 1 22.5 1H72.5C75.2614 1 77.5 3.23858 77.5 6V38.5M17.5 19.75H7.5M17.5 57.25V71C17.5 73.7614 19.7386 76 22.5 76H72.5C75.2614 76 77.5 73.7614 77.5 71V38.5M17.5 57.25H7.5M77.5 38.5H87.5" stroke="black" stroke-width="2"/>
<path d="M1 57.4574C1.04338 62.2069 8.04248 62.1548 7.99981 57.4574M1 57.5426C1.04338 52.7931 8.04248 52.8452 7.9998 57.5426" stroke="black" stroke-width="2"/>
<path d="M17.5 38.5V19.75M17.5 38.5V57.25M17.5 38.5H7.5M17.5 19.75V6C17.5 3.23858 19.7386 1 22.5 1H72.5C75.2614 1 77.5 3.23858 77.5 6V38.5M17.5 19.75H7.5M17.5 57.25V71C17.5 73.7614 19.7386 76 22.5 76H72.5C75.2614 76 77.5 73.7614 77.5 71V38.5M17.5 57.25H7.5M77.5 38.5H87.5" stroke="black" stroke-width="2"/>
</svg>
