<svg width="95" height="77" viewBox="0 0 95 77" fill="none" xmlns="http://www.w3.org/2000/svg">
<path d="M17.5 19.75V38.5V57.25M17.5 19.75V6C17.5 3.23858 19.7386 1 22.5 1H72.5C75.2614 1 77.5 3.23858 77.5 6V38.5M17.5 19.75H7.5M17.5 57.25V71C17.5 73.7614 19.7386 76 22.5 76H72.5C75.2614 76 77.5 73.7614 77.5 71V38.5M17.5 57.25H7.5M77.5 38.5H87.5" stroke="#62E0D9" stroke-width="2"/>
<path d="M1 19.4574C1.04338 24.2069 8.04248 24.1548 7.99981 19.4574M1 19.5426C1.04338 14.7931 8.04248 14.8452 7.9998 19.5426" stroke="#62E0D9" stroke-width="2"/>
<path d="M1 57.4574C1.04338 62.2069 8.04248 62.1548 7.99981 57.4574M1 57.5426C1.04338 52.7931 8.04248 52.8452 7.9998 57.5426" stroke="#62E0D9" stroke-width="2"/>
<path d="M87 38.4574C87.0434 43.2069 94.0425 43.1548 93.9998 38.4574M87 38.5426C87.0434 33.7931 94.0425 33.8452 93.9998 38.5426" stroke="#62E0D9" stroke-width="2"/>
<path d="M27.3535 36.2305L30.7617 30.7812H32.9688L28.4766 37.832L33.0762 45H30.8496L27.3535 39.4531L23.8379 45H21.6211L26.2305 37.832L21.7285 30.7812H23.9258L27.3535 36.2305ZM46.1816 45H44.2969L37.1387 34.043V45H35.2539V30.7812H37.1387L44.3164 41.7871V30.7812H46.1816V45ZM60.4492 38.3496C60.4492 39.7428 60.2148 40.9603 59.7461 42.002C59.2773 43.0371 58.6133 43.8281 57.7539 44.375C56.8945 44.9219 55.8919 45.1953 54.7461 45.1953C53.6263 45.1953 52.6335 44.9219 51.7676 44.375C50.9017 43.8216 50.2279 43.0371 49.7461 42.0215C49.2708 40.9993 49.0267 39.8177 49.0137 38.4766V37.4512C49.0137 36.084 49.2513 34.8763 49.7266 33.8281C50.2018 32.7799 50.8724 31.9792 51.7383 31.4258C52.6107 30.8659 53.6068 30.5859 54.7266 30.5859C55.8659 30.5859 56.8685 30.8626 57.7344 31.416C58.6068 31.9629 59.2773 32.7604 59.7461 33.8086C60.2148 34.8503 60.4492 36.0645 60.4492 37.4512V38.3496ZM58.584 37.4316C58.584 35.7454 58.2454 34.4531 57.5684 33.5547C56.8913 32.6497 55.944 32.1973 54.7266 32.1973C53.5417 32.1973 52.6074 32.6497 51.9238 33.5547C51.2467 34.4531 50.8984 35.7031 50.8789 37.3047V38.3496C50.8789 39.9837 51.2207 41.2695 51.9043 42.207C52.5944 43.138 53.5417 43.6035 54.7461 43.6035C55.957 43.6035 56.8945 43.1641 57.5586 42.2852C58.2227 41.3997 58.5645 40.1335 58.584 38.4863V37.4316ZM68.4766 39.248H65.1367V45H63.252V30.7812H67.959C69.5605 30.7812 70.791 31.1458 71.6504 31.875C72.5163 32.6042 72.9492 33.6654 72.9492 35.0586C72.9492 35.944 72.7083 36.7155 72.2266 37.373C71.7513 38.0306 71.0872 38.5221 70.2344 38.8477L73.5742 44.8828V45H71.5625L68.4766 39.248ZM65.1367 37.7148H68.0176C68.9486 37.7148 69.6875 37.474 70.2344 36.9922C70.7878 36.5104 71.0645 35.8659 71.0645 35.0586C71.0645 34.1797 70.8008 33.5059 70.2734 33.0371C69.7526 32.5684 68.9974 32.3307 68.0078 32.3242H65.1367V37.7148Z" fill="#62E0D9"/>
<path d="M17.5 19.75V38.5V57.25M17.5 19.75V6C17.5 3.23858 19.7386 1 22.5 1H72.5C75.2614 1 77.5 3.23858 77.5 6V38.5M17.5 19.75H7.5M17.5 57.25V71C17.5 73.7614 19.7386 76 22.5 76H72.5C75.2614 76 77.5 73.7614 77.5 71V38.5M17.5 57.25H7.5M77.5 38.5H87.5" stroke="#62E0D9" stroke-width="2"/>
<path d="M27.3535 36.2305L30.7617 30.7812H32.9688L28.4766 37.832L33.0762 45H30.8496L27.3535 39.4531L23.8379 45H21.6211L26.2305 37.832L21.7285 30.7812H23.9258L27.3535 36.2305ZM46.1816 45H44.2969L37.1387 34.043V45H35.2539V30.7812H37.1387L44.3164 41.7871V30.7812H46.1816V45ZM60.4492 38.3496C60.4492 39.7428 60.2148 40.9603 59.7461 42.002C59.2773 43.0371 58.6133 43.8281 57.7539 44.375C56.8945 44.9219 55.8919 45.1953 54.7461 45.1953C53.6263 45.1953 52.6335 44.9219 51.7676 44.375C50.9017 43.8216 50.2279 43.0371 49.7461 42.0215C49.2708 40.9993 49.0267 39.8177 49.0137 38.4766V37.4512C49.0137 36.084 49.2513 34.8763 49.7266 33.8281C50.2018 32.7799 50.8724 31.9792 51.7383 31.4258C52.6107 30.8659 53.6068 30.5859 54.7266 30.5859C55.8659 30.5859 56.8685 30.8626 57.7344 31.416C58.6068 31.9629 59.2773 32.7604 59.7461 33.8086C60.2148 34.8503 60.4492 36.0645 60.4492 37.4512V38.3496ZM58.584 37.4316C58.584 35.7454 58.2454 34.4531 57.5684 33.5547C56.8913 32.6497 55.944 32.1973 54.7266 32.1973C53.5417 32.1973 52.6074 32.6497 51.9238 33.5547C51.2467 34.4531 50.8984 35.7031 50.8789 37.3047V38.3496C50.8789 39.9837 51.2207 41.2695 51.9043 42.207C52.5944 43.138 53.5417 43.6035 54.7461 43.6035C55.957 43.6035 56.8945 43.1641 57.5586 42.2852C58.2227 41.3997 58.5645 40.1335 58.584 38.4863V37.4316ZM68.4766 39.248H65.1367V45H63.252V30.7812H67.959C69.5605 30.7812 70.791 31.1458 71.6504 31.875C72.5163 32.6042 72.9492 33.6654 72.9492 35.0586C72.9492 35.944 72.7083 36.7155 72.2266 37.373C71.7513 38.0306 71.0872 38.5221 70.2344 38.8477L73.5742 44.8828V45H71.5625L68.4766 39.248ZM65.1367 37.7148H68.0176C68.9486 37.7148 69.6875 37.474 70.2344 36.9922C70.7878 36.5104 71.0645 35.8659 71.0645 35.0586C71.0645 34.1797 70.8008 33.5059 70.2734 33.0371C69.7526 32.5684 68.9974 32.3307 68.0078 32.3242H65.1367V37.7148Z" fill="#62E0D9"/>
</svg>
