<svg width="96" height="77" viewBox="0 0 96 77" fill="none" xmlns="http://www.w3.org/2000/svg">
<path d="M17.5 19.75V38.5V57.25M17.5 19.75V6C17.5 3.23858 19.7386 1 22.5 1H72.5C75.2614 1 77.5 3.23858 77.5 6V38.5M17.5 19.75H7.5M17.5 57.25V71C17.5 73.7614 19.7386 76 22.5 76H72.5C75.2614 76 77.5 73.7614 77.5 71V38.5M17.5 57.25H7.5M77.5 38.5H87.5" stroke="#62E0D9" stroke-width="2"/>
<path d="M1 19.4574C1.04338 24.2069 8.04248 24.1548 7.99981 19.4574M1 19.5426C1.04338 14.7931 8.04248 14.8452 7.9998 19.5426" stroke="#62E0D9" stroke-width="2"/>
<path d="M1 57.4574C1.04338 62.2069 8.04248 62.1548 7.99981 57.4574M1 57.5426C1.04338 52.7931 8.04248 52.8452 7.9998 57.5426" stroke="#62E0D9" stroke-width="2"/>
<path d="M88 38.4574C88.0434 43.2069 95.0425 43.1548 94.9998 38.4574M88 38.5426C88.0434 33.7931 95.0425 33.8452 94.9998 38.5426" stroke="#62E0D9" stroke-width="2"/>
<path d="M34.6094 36.2305L38.0176 30.7812H40.2246L35.7324 37.832L40.332 45H38.1055L34.6094 39.4531L31.0938 45H28.877L33.4863 37.832L28.9844 30.7812H31.1816L34.6094 36.2305ZM53.1934 38.3496C53.1934 39.7428 52.959 40.9603 52.4902 42.002C52.0215 43.0371 51.3574 43.8281 50.498 44.375C49.6387 44.9219 48.6361 45.1953 47.4902 45.1953C46.3704 45.1953 45.3776 44.9219 44.5117 44.375C43.6458 43.8216 42.972 43.0371 42.4902 42.0215C42.015 40.9993 41.7708 39.8177 41.7578 38.4766V37.4512C41.7578 36.084 41.9954 34.8763 42.4707 33.8281C42.946 32.7799 43.6165 31.9792 44.4824 31.4258C45.3548 30.8659 46.3509 30.5859 47.4707 30.5859C48.61 30.5859 49.6126 30.8626 50.4785 31.416C51.3509 31.9629 52.0215 32.7604 52.4902 33.8086C52.959 34.8503 53.1934 36.0645 53.1934 37.4512V38.3496ZM51.3281 37.4316C51.3281 35.7454 50.9896 34.4531 50.3125 33.5547C49.6354 32.6497 48.6882 32.1973 47.4707 32.1973C46.2858 32.1973 45.3516 32.6497 44.668 33.5547C43.9909 34.4531 43.6426 35.7031 43.623 37.3047V38.3496C43.623 39.9837 43.9648 41.2695 44.6484 42.207C45.3385 43.138 46.2858 43.6035 47.4902 43.6035C48.7012 43.6035 49.6387 43.1641 50.3027 42.2852C50.9668 41.3997 51.3086 40.1335 51.3281 38.4863V37.4316ZM61.2207 39.248H57.8809V45H55.9961V30.7812H60.7031C62.3047 30.7812 63.5352 31.1458 64.3945 31.875C65.2604 32.6042 65.6934 33.6654 65.6934 35.0586C65.6934 35.944 65.4525 36.7155 64.9707 37.373C64.4954 38.0306 63.8314 38.5221 62.9785 38.8477L66.3184 44.8828V45H64.3066L61.2207 39.248ZM57.8809 37.7148H60.7617C61.6927 37.7148 62.4316 37.474 62.9785 36.9922C63.5319 36.5104 63.8086 35.8659 63.8086 35.0586C63.8086 34.1797 63.5449 33.5059 63.0176 33.0371C62.4967 32.5684 61.7415 32.3307 60.752 32.3242H57.8809V37.7148Z" fill="#62E0D9"/>
<path d="M17.5 19.75V38.5V57.25M17.5 19.75V6C17.5 3.23858 19.7386 1 22.5 1H72.5C75.2614 1 77.5 3.23858 77.5 6V38.5M17.5 19.75H7.5M17.5 57.25V71C17.5 73.7614 19.7386 76 22.5 76H72.5C75.2614 76 77.5 73.7614 77.5 71V38.5M17.5 57.25H7.5M77.5 38.5H87.5" stroke="#62E0D9" stroke-width="2"/>
<path d="M34.6094 36.2305L38.0176 30.7812H40.2246L35.7324 37.832L40.332 45H38.1055L34.6094 39.4531L31.0938 45H28.877L33.4863 37.832L28.9844 30.7812H31.1816L34.6094 36.2305ZM53.1934 38.3496C53.1934 39.7428 52.959 40.9603 52.4902 42.002C52.0215 43.0371 51.3574 43.8281 50.498 44.375C49.6387 44.9219 48.6361 45.1953 47.4902 45.1953C46.3704 45.1953 45.3776 44.9219 44.5117 44.375C43.6458 43.8216 42.972 43.0371 42.4902 42.0215C42.015 40.9993 41.7708 39.8177 41.7578 38.4766V37.4512C41.7578 36.084 41.9954 34.8763 42.4707 33.8281C42.946 32.7799 43.6165 31.9792 44.4824 31.4258C45.3548 30.8659 46.3509 30.5859 47.4707 30.5859C48.61 30.5859 49.6126 30.8626 50.4785 31.416C51.3509 31.9629 52.0215 32.7604 52.4902 33.8086C52.959 34.8503 53.1934 36.0645 53.1934 37.4512V38.3496ZM51.3281 37.4316C51.3281 35.7454 50.9896 34.4531 50.3125 33.5547C49.6354 32.6497 48.6882 32.1973 47.4707 32.1973C46.2858 32.1973 45.3516 32.6497 44.668 33.5547C43.9909 34.4531 43.6426 35.7031 43.623 37.3047V38.3496C43.623 39.9837 43.9648 41.2695 44.6484 42.207C45.3385 43.138 46.2858 43.6035 47.4902 43.6035C48.7012 43.6035 49.6387 43.1641 50.3027 42.2852C50.9668 41.3997 51.3086 40.1335 51.3281 38.4863V37.4316ZM61.2207 39.248H57.8809V45H55.9961V30.7812H60.7031C62.3047 30.7812 63.5352 31.1458 64.3945 31.875C65.2604 32.6042 65.6934 33.6654 65.6934 35.0586C65.6934 35.944 65.4525 36.7155 64.9707 37.373C64.4954 38.0306 63.8314 38.5221 62.9785 38.8477L66.3184 44.8828V45H64.3066L61.2207 39.248ZM57.8809 37.7148H60.7617C61.6927 37.7148 62.4316 37.474 62.9785 36.9922C63.5319 36.5104 63.8086 35.8659 63.8086 35.0586C63.8086 34.1797 63.5449 33.5059 63.0176 33.0371C62.4967 32.5684 61.7415 32.3307 60.752 32.3242H57.8809V37.7148Z" fill="#62E0D9"/>
</svg>
