<svg width="79" height="72" viewBox="0 0 79 72" fill="none" xmlns="http://www.w3.org/2000/svg">
<path d="M1 35.4574C1.04338 40.2069 8.04248 40.1548 7.99981 35.4574M1 35.5426C1.04338 30.7931 8.04248 30.8452 7.9998 35.5426" stroke="white" stroke-width="2"/>
<path d="M18 36V18.5V6C18 3.23858 20.2386 1 23 1H73C75.7614 1 78 3.23858 78 6V36V66C78 68.7614 75.7614 71 73 71H23C20.2386 71 18 68.7614 18 66V53.5V36ZM18 36H8" stroke="white" stroke-width="2"/>
<path d="M18 36V18.5V6C18 3.23858 20.2386 1 23 1H73C75.7614 1 78 3.23858 78 6V36V66C78 68.7614 75.7614 71 73 71H23C20.2386 71 18 68.7614 18 66V53.5V36ZM18 36H8" stroke="white" stroke-width="2"/>
</svg>
