<svg width="95" height="77" viewBox="0 0 95 77" fill="none" xmlns="http://www.w3.org/2000/svg">
<path d="M17.5 38.5V6C17.5 3.23858 19.7386 1 22.5 1H72.5C75.2614 1 77.5 3.23858 77.5 6V38.5M17.5 38.5H7.5M17.5 38.5V57.25V71C17.5 73.7614 19.7386 76 22.5 76H72.5C75.2614 76 77.5 73.7614 77.5 71V38.5M77.5 38.5H87.5" stroke="white" stroke-width="2"/>
<path d="M1 38.4574C1.04338 43.2069 8.04248 43.1548 7.99981 38.4574M1 38.5426C1.04338 33.7931 8.04248 33.8452 7.9998 38.5426" stroke="white" stroke-width="2"/>
<path d="M87 38.4574C87.0434 43.2069 94.0425 43.1548 93.9998 38.4574M87 38.5426C87.0434 33.7931 94.0425 33.8452 93.9998 38.5426" stroke="white" stroke-width="2"/>
<path d="M40.2441 45H38.3594L31.2012 34.043V45H29.3164V30.7812H31.2012L38.3789 41.7871V30.7812H40.2441V45ZM54.5117 38.3496C54.5117 39.7428 54.2773 40.9603 53.8086 42.002C53.3398 43.0371 52.6758 43.8281 51.8164 44.375C50.957 44.9219 49.9544 45.1953 48.8086 45.1953C47.6888 45.1953 46.696 44.9219 45.8301 44.375C44.9642 43.8216 44.2904 43.0371 43.8086 42.0215C43.3333 40.9993 43.0892 39.8177 43.0762 38.4766V37.4512C43.0762 36.084 43.3138 34.8763 43.7891 33.8281C44.2643 32.7799 44.9349 31.9792 45.8008 31.4258C46.6732 30.8659 47.6693 30.5859 48.7891 30.5859C49.9284 30.5859 50.931 30.8626 51.7969 31.416C52.6693 31.9629 53.3398 32.7604 53.8086 33.8086C54.2773 34.8503 54.5117 36.0645 54.5117 37.4512V38.3496ZM52.6465 37.4316C52.6465 35.7454 52.3079 34.4531 51.6309 33.5547C50.9538 32.6497 50.0065 32.1973 48.7891 32.1973C47.6042 32.1973 46.6699 32.6497 45.9863 33.5547C45.3092 34.4531 44.9609 35.7031 44.9414 37.3047V38.3496C44.9414 39.9837 45.2832 41.2695 45.9668 42.207C46.6569 43.138 47.6042 43.6035 48.8086 43.6035C50.0195 43.6035 50.957 43.1641 51.6211 42.2852C52.2852 41.3997 52.627 40.1335 52.6465 38.4863V37.4316ZM66.875 32.3242H62.3047V45H60.4395V32.3242H55.8789V30.7812H66.875V32.3242Z" fill="#F1F1F1"/>
</svg>
