<svg width="79" height="72" viewBox="0 0 79 72" fill="none" xmlns="http://www.w3.org/2000/svg">
<path d="M78 35.4574C77.9566 40.2069 70.9575 40.1548 71.0002 35.4574M78 35.5426C77.9566 30.7931 70.9575 30.8452 71.0002 35.5426" stroke="white" stroke-width="2"/>
<path d="M61 36V18.5V6C61 3.23858 58.7614 1 56 1H6C3.23858 1 1 3.23858 1 6V36V66C1 68.7614 3.23858 71 6 71H56C58.7614 71 61 68.7614 61 66V53.5V36ZM61 36H71" stroke="white" stroke-width="2"/>
<path d="M61 36V18.5V6C61 3.23858 58.7614 1 56 1H6C3.23858 1 1 3.23858 1 6V36V66C1 68.7614 3.23858 71 6 71H56C58.7614 71 61 68.7614 61 66V53.5V36ZM61 36H71" stroke="white" stroke-width="2"/>
<path d="M46 17H17C15.8954 17 15 17.8954 15 19V53C15 54.1046 15.8954 55 17 55H46C47.1046 55 48 54.1046 48 53V19C48 17.8954 47.1046 17 46 17Z" stroke="white" stroke-width="2"/>
</svg>
